<?xml version="1.0" encoding="UTF-8" standalone="no"?>
<!DOCTYPE svg PUBLIC "-//W3C//DTD SVG 1.1//EN"
 "http://www.w3.org/Graphics/SVG/1.1/DTD/svg11.dtd">
<!-- Generated by graphviz version 2.43.0 (0)
 -->
<!-- Title: ClientServer Pages: 1 -->
<svg width="526pt" height="567pt"
 viewBox="0.00 0.00 526.00 567.00" xmlns="http://www.w3.org/2000/svg" xmlns:xlink="http://www.w3.org/1999/xlink">
<g id="graph0" class="graph" transform="scale(1 1) rotate(0) translate(4 563)">
<title>ClientServer</title>
<polygon fill="transparent" stroke="transparent" points="-4,4 -4,-563 522,-563 522,4 -4,4"/>
<!-- Client -->
<g id="node1" class="node">
<title>Client</title>
<path fill="#e3a57f" stroke="black" d="M66,-317.73C66,-319.53 51.21,-321 33,-321 14.79,-321 0,-319.53 0,-317.73 0,-317.73 0,-288.27 0,-288.27 0,-286.47 14.79,-285 33,-285 51.21,-285 66,-286.47 66,-288.27 66,-288.27 66,-317.73 66,-317.73"/>
<path fill="none" stroke="black" d="M66,-317.73C66,-315.92 51.21,-314.45 33,-314.45 14.79,-314.45 0,-315.92 0,-317.73"/>
<text text-anchor="middle" x="33" y="-299.3" font-family="monospace" font-size="14.00">Client</text>
</g>
<!-- RequestCreate -->
<g id="node3" class="node">
<title>RequestCreate</title>
<polygon fill="none" stroke="black" points="143.5,-467.5 143.5,-558.5 374.5,-558.5 374.5,-467.5 143.5,-467.5"/>
<text text-anchor="middle" x="259" y="-543.3" font-family="monospace" font-size="14.00">POST /user/create</text>
<polyline fill="none" stroke="black" points="143.5,-535.5 374.5,-535.5 "/>
<text text-anchor="start" x="151.5" y="-520.3" font-family="monospace" font-size="14.00">{</text>
<text text-anchor="start" x="151.5" y="-505.3" font-family="monospace" font-size="14.00">&quot;email&quot;: &quot;user@email.org&quot;,</text>
<text text-anchor="start" x="151.5" y="-490.3" font-family="monospace" font-size="14.00">&quot;password&quot;: &quot;abc42&quot;</text>
<text text-anchor="start" x="151.5" y="-475.3" font-family="monospace" font-size="14.00">}</text>
</g>
<!-- Client&#45;&gt;RequestCreate -->
<g id="edge1" class="edge">
<title>Client&#45;&gt;RequestCreate</title>
<path fill="none" stroke="black" d="M37.07,-321.02C43.44,-353.03 61.08,-420.02 102,-458 111.48,-466.8 122.45,-474.2 134.09,-480.43"/>
<polygon fill="black" stroke="black" points="132.6,-483.6 143.11,-484.96 135.75,-477.34 132.6,-483.6"/>
</g>
<!-- ResponseCreate -->
<g id="node4" class="node">
<title>ResponseCreate</title>
<polygon fill="none" stroke="black" points="205.5,-412 205.5,-448 312.5,-448 312.5,-412 205.5,-412"/>
<text text-anchor="middle" x="259" y="-426.3" font-family="monospace" font-size="14.00">Status: 200</text>
</g>
<!-- Client&#45;&gt;ResponseCreate -->
<g id="edge7" class="edge">
<title>Client&#45;&gt;ResponseCreate</title>
<path fill="none" stroke="black" d="M45.5,-330.51C56.55,-353.39 75.48,-384.88 102,-402 132.63,-421.77 173.34,-428.58 205.5,-430.54"/>
<polygon fill="black" stroke="black" points="48.62,-328.92 41.25,-321.3 42.26,-331.85 48.62,-328.92"/>
</g>
<!-- RequestLogin -->
<g id="node5" class="node">
<title>RequestLogin</title>
<polygon fill="none" stroke="black" points="143.5,-301.5 143.5,-392.5 374.5,-392.5 374.5,-301.5 143.5,-301.5"/>
<text text-anchor="middle" x="259" y="-377.3" font-family="monospace" font-size="14.00">POST /user/login</text>
<polyline fill="none" stroke="black" points="143.5,-369.5 374.5,-369.5 "/>
<text text-anchor="start" x="151.5" y="-354.3" font-family="monospace" font-size="14.00">{</text>
<text text-anchor="start" x="151.5" y="-339.3" font-family="monospace" font-size="14.00">&quot;email&quot;: &quot;user@email.org&quot;,</text>
<text text-anchor="start" x="151.5" y="-324.3" font-family="monospace" font-size="14.00">&quot;password&quot;: &quot;abc42&quot;</text>
<text text-anchor="start" x="151.5" y="-309.3" font-family="monospace" font-size="14.00">}</text>
</g>
<!-- Client&#45;&gt;RequestLogin -->
<g id="edge2" class="edge">
<title>Client&#45;&gt;RequestLogin</title>
<path fill="none" stroke="black" d="M66.09,-309.3C84.25,-312.87 108.25,-317.58 133.11,-322.47"/>
<polygon fill="black" stroke="black" points="132.55,-325.93 143.04,-324.42 133.9,-319.06 132.55,-325.93"/>
</g>
<!-- ResponseLogin -->
<g id="node6" class="node">
<title>ResponseLogin</title>
<polygon fill="none" stroke="black" points="189,-236 189,-282 329,-282 329,-236 189,-236"/>
<text text-anchor="middle" x="259" y="-266.8" font-family="monospace" font-size="14.00">Status: 200</text>
<polyline fill="none" stroke="black" points="189,-259 329,-259 "/>
<text text-anchor="middle" x="259" y="-243.8" font-family="monospace" font-size="14.00">&quot;eyJhbGciOiJd…&quot;</text>
</g>
<!-- Client&#45;&gt;ResponseLogin -->
<g id="edge8" class="edge">
<title>Client&#45;&gt;ResponseLogin</title>
<path fill="none" stroke="black" d="M76.31,-294.69C107.93,-288.48 151.83,-279.86 188.56,-272.64"/>
<polygon fill="black" stroke="black" points="75.23,-291.33 66.09,-296.7 76.58,-298.2 75.23,-291.33"/>
</g>
<!-- RequestBtcRate -->
<g id="node7" class="node">
<title>RequestBtcRate</title>
<polygon fill="none" stroke="black" points="102,-171 102,-217 416,-217 416,-171 102,-171"/>
<text text-anchor="middle" x="259" y="-201.8" font-family="monospace" font-size="14.00">GET /btcRate</text>
<polyline fill="none" stroke="black" points="102,-194 416,-194 "/>
<text text-anchor="middle" x="259" y="-178.8" font-family="monospace" font-size="14.00">Authentication: Bearer eyJhbGciOiJd…</text>
</g>
<!-- Client&#45;&gt;RequestBtcRate -->
<g id="edge3" class="edge">
<title>Client&#45;&gt;RequestBtcRate</title>
<path fill="none" stroke="black" d="M45.17,-284.94C57.05,-267.33 77.48,-241.19 102,-227 105.47,-224.99 109.05,-223.1 112.71,-221.33"/>
<polygon fill="black" stroke="black" points="114.3,-224.45 121.98,-217.15 111.42,-218.07 114.3,-224.45"/>
</g>
<!-- ResponseBtcRate -->
<g id="node8" class="node">
<title>ResponseBtcRate</title>
<polygon fill="none" stroke="black" points="135,-0.5 135,-151.5 383,-151.5 383,-0.5 135,-0.5"/>
<text text-anchor="middle" x="259" y="-136.3" font-family="monospace" font-size="14.00">Status: 200</text>
<polyline fill="none" stroke="black" points="135,-128.5 383,-128.5 "/>
<text text-anchor="start" x="143" y="-113.3" font-family="monospace" font-size="14.00">{</text>
<text text-anchor="start" x="143" y="-98.3" font-family="monospace" font-size="14.00">&quot;user&quot;: {</text>
<text text-anchor="start" x="143" y="-83.3" font-family="monospace" font-size="14.00"> &#160;&quot;email&quot;: &quot;user@email.org&quot;,</text>
<text text-anchor="start" x="143" y="-68.3" font-family="monospace" font-size="14.00"> &#160;&quot;iat&quot;: 1624811632,</text>
<text text-anchor="start" x="143" y="-53.3" font-family="monospace" font-size="14.00"> &#160;&quot;exp&quot;: 1624812232</text>
<text text-anchor="start" x="143" y="-38.3" font-family="monospace" font-size="14.00">},</text>
<text text-anchor="start" x="143" y="-23.3" font-family="monospace" font-size="14.00">&quot;rate&quot;: 903146.9807785695</text>
<text text-anchor="start" x="143" y="-8.3" font-family="monospace" font-size="14.00">}</text>
</g>
<!-- Client&#45;&gt;ResponseBtcRate -->
<g id="edge9" class="edge">
<title>Client&#45;&gt;ResponseBtcRate</title>
<path fill="none" stroke="black" d="M41.76,-275.24C51.55,-244.44 70.94,-194.8 102,-162 111.68,-151.78 122.84,-142.48 134.66,-134.09"/>
<polygon fill="black" stroke="black" points="38.39,-274.32 38.81,-284.9 45.08,-276.36 38.39,-274.32"/>
</g>
<!-- Server -->
<g id="node2" class="node">
<title>Server</title>
<path fill="#7dabd4" stroke="black" d="M518,-317.73C518,-319.53 503.21,-321 485,-321 466.79,-321 452,-319.53 452,-317.73 452,-317.73 452,-288.27 452,-288.27 452,-286.47 466.79,-285 485,-285 503.21,-285 518,-286.47 518,-288.27 518,-288.27 518,-317.73 518,-317.73"/>
<path fill="none" stroke="black" d="M518,-317.73C518,-315.92 503.21,-314.45 485,-314.45 466.79,-314.45 452,-315.92 452,-317.73"/>
<text text-anchor="middle" x="485" y="-299.3" font-family="monospace" font-size="14.00">Server</text>
</g>
<!-- RequestCreate&#45;&gt;Server -->
<g id="edge4" class="edge">
<title>RequestCreate&#45;&gt;Server</title>
<path fill="none" stroke="black" d="M374.89,-484.96C389.87,-477.88 404.11,-469.04 416,-458 453.09,-423.58 471.05,-365.34 478.83,-330.89"/>
<polygon fill="black" stroke="black" points="482.27,-331.53 480.93,-321.02 475.43,-330.07 482.27,-331.53"/>
</g>
<!-- ResponseCreate&#45;&gt;Server -->
<g id="edge10" class="edge">
<title>ResponseCreate&#45;&gt;Server</title>
<path fill="none" stroke="black" d="M322.54,-429.79C352.82,-427.06 388.48,-419.77 416,-402 446.31,-382.43 466.71,-344.1 476.75,-321.3"/>
<polygon fill="black" stroke="black" points="322.21,-426.3 312.5,-430.54 322.74,-433.28 322.21,-426.3"/>
</g>
<!-- RequestLogin&#45;&gt;Server -->
<g id="edge5" class="edge">
<title>RequestLogin&#45;&gt;Server</title>
<path fill="none" stroke="black" d="M374.62,-324.48C398.71,-319.75 422.64,-315.05 441.94,-311.26"/>
<polygon fill="black" stroke="black" points="442.74,-314.67 451.88,-309.31 441.39,-307.8 442.74,-314.67"/>
</g>
<!-- ResponseLogin&#45;&gt;Server -->
<g id="edge11" class="edge">
<title>ResponseLogin&#45;&gt;Server</title>
<path fill="none" stroke="black" d="M339.26,-274.57C377.98,-282.17 422.41,-290.9 451.72,-296.66"/>
<polygon fill="black" stroke="black" points="339.52,-271.05 329.04,-272.56 338.17,-277.92 339.52,-271.05"/>
</g>
<!-- RequestBtcRate&#45;&gt;Server -->
<g id="edge6" class="edge">
<title>RequestBtcRate&#45;&gt;Server</title>
<path fill="none" stroke="black" d="M396.02,-217.15C402.94,-220.06 409.65,-223.33 416,-227 436.88,-239.08 454.79,-259.83 466.99,-276.6"/>
<polygon fill="black" stroke="black" points="464.22,-278.76 472.83,-284.94 469.96,-274.74 464.22,-278.76"/>
</g>
<!-- ResponseBtcRate&#45;&gt;Server -->
<g id="edge12" class="edge">
<title>ResponseBtcRate&#45;&gt;Server</title>
<path fill="none" stroke="black" d="M391.53,-140.14C400.31,-146.89 408.59,-154.18 416,-162 450.57,-198.51 470.69,-255.88 479.19,-284.9"/>
<polygon fill="black" stroke="black" points="393.47,-137.22 383.34,-134.09 389.31,-142.85 393.47,-137.22"/>
</g>
</g>
</svg>
